<svg xmlns="http://www.w3.org/2000/svg" width="16" height="16" viewBox="0 0 16 16" fill="none">
  <path d="M15.9977 4.2827C15.9986 4.4304 15.9186 4.5737 15.7736 4.6237C15.7196 4.6437 15.6626 4.6447 15.6086 4.6407L11.6086 4.6407C11.5566 4.6407 11.5046 4.6337 11.4536 4.6207C11.1186 4.5287 10.8046 4.3377 10.6276 4.0927C9.9926 3.3387 8.7066 2.5787 7.0566 2.5787C5.4086 2.5787 4.1246 3.3387 3.4886 4.0927C3.3106 4.3377 2.9966 4.5287 2.6626 4.6207C2.6126 4.6337 2.5636 4.6407 2.5136 4.6407H0.5136C0.4596 4.6447 0.4026 4.6437 0.3486 4.6237C0.2036 4.5737 0.1236 4.4304 0.1246 4.2827C0.1256 4.1347 0.2056 3.9907 0.3506 3.9417C0.4056 3.9207 0.4676 3.9227 0.5236 3.9457L4.5236 5.9457C4.7266 6.0857 5.0146 6.1377 5.2996 6.0767C5.6336 6.0137 5.8656 5.8257 5.9656 5.5257L6.9656 3.5257C7.0656 3.2257 7.2046 3.0107 7.4516 2.8897C7.7366 2.7577 8.0706 2.8537 8.1656 3.1377L9.1656 5.1377C9.2616 5.4127 9.5246 5.5857 9.7926 5.6147C10.0606 5.6437 10.3366 5.5167 10.4896 5.3147C11.1246 4.3967 12.4436 3.9447 13.4446 4.2827C13.6126 4.3387 13.7466 4.4677 13.8506 4.6307C13.9986 4.7617 14.0006 4.9277 13.9976 5.0867C13.9976 5.0867 14.0006 5.0037 14.0006 4.9237L15.9976 4.2827Z" fill="#ff6600"/>
  <path d="M6.5426 3.7597L9.5436 4.7597C9.7046 4.8497 9.7046 5.1797 9.5436 5.2697L6.5426 6.2697C6.3816 6.3597 6.1606 6.2497 6.1606 6.0297L6.1606 3.9297C6.1606 3.7097 6.3816 3.5997 6.5426 3.7597Z" fill="black"/>
</svg>
